<svg xmlns="http://www.w3.org/2000/svg" width="162" height="51" viewBox="0 0 162 51" fill="none">
  <g clip-path="url(#clip0_1_10886)">
    <path d="M85.1361 13.4659C85.1361 15.2655 83.6745 16.7145 81.8606 16.7145C80.0466 16.7145 78.586 15.2655 78.586 13.4659C78.586 11.6664 79.9968 10.2173 81.8606 10.2173C83.7259 10.2673 85.1361 11.7168 85.1361 13.4659ZM71.6331 20.0141V20.814C71.6331 20.814 70.0719 18.8137 66.7464 18.8137C61.2552 18.8137 56.972 22.9626 56.972 28.7103C56.972 34.4086 61.2049 38.6068 66.7464 38.6068C70.1222 38.6068 71.6331 36.5576 71.6331 36.5576V37.407C71.6331 37.807 71.9361 38.106 72.3388 38.106H76.4192V19.312H72.3388C71.9361 19.3135 71.6331 19.664 71.6331 20.0141ZM71.6331 32.0592C70.8782 33.1592 69.3662 34.109 67.5527 34.109C64.3285 34.109 61.8592 32.1097 61.8592 28.7103C61.8592 25.3114 64.3285 23.3121 67.5527 23.3121C69.3164 23.3121 70.9285 24.3117 71.6331 25.3613V32.0592ZM79.4426 19.3135H84.279V38.1075H79.4426V19.3135ZM151.691 18.8132C148.366 18.8132 146.804 20.8135 146.804 20.8135V10.2673H141.967V38.1075H146.049C146.452 38.1075 146.753 37.7575 146.753 37.4075V36.5581C146.753 36.5581 148.316 38.6074 151.64 38.6074C157.132 38.6074 161.414 34.41 161.414 28.7118C161.414 23.0135 157.132 18.8132 151.691 18.8132ZM150.885 34.0585C149.02 34.0585 147.56 33.1098 146.804 32.0093V25.3114C147.56 24.3117 149.172 23.2622 150.885 23.2622C154.109 23.2622 156.578 25.2614 156.578 28.6603C156.578 32.0592 154.11 34.0585 150.885 34.0585ZM139.449 26.9617V38.1575H134.611V27.5109C134.611 24.4126 133.604 23.1623 130.885 23.1623C129.424 23.1623 127.912 23.9123 126.953 25.0123V38.108H122.118V19.314H125.946C126.349 19.314 126.651 19.664 126.651 20.0141V20.814C128.062 19.3639 129.926 18.8137 131.79 18.8137C133.906 18.8137 135.67 19.4144 137.081 20.6138C138.793 22.0134 139.449 23.8124 139.449 26.9617ZM110.377 18.8132C107.053 18.8132 105.49 20.8135 105.49 20.8135V10.2673H100.654V38.1075H104.734C105.138 38.1075 105.44 37.7575 105.44 37.4075V36.5581C105.44 36.5581 107.002 38.6074 110.327 38.6074C115.819 38.6074 120.101 34.41 120.101 28.7118C120.151 23.013 115.869 18.8132 110.377 18.8132ZM109.571 34.0585C107.707 34.0585 106.246 33.1098 105.49 32.0093V25.3114C106.246 24.3117 107.858 23.2622 109.571 23.2622C112.796 23.2622 115.264 25.2614 115.264 28.6603C115.264 32.0592 112.796 34.0585 109.571 34.0585ZM96.4719 18.8132C97.9325 18.8132 98.6885 19.0638 98.6885 19.0638V23.5118C98.6885 23.5118 94.6579 22.1621 92.1393 25.0118V38.157H87.3019V19.3135H91.3833C91.7865 19.3135 92.088 19.6635 92.088 20.0136V20.8135C92.9959 19.7634 94.9609 18.8132 96.4719 18.8132ZM46.2412 36.4079C45.9896 35.8082 45.7374 35.1585 45.4858 34.6083C45.0821 33.709 44.679 32.8587 44.3271 32.0592L44.2768 32.0093C40.7999 24.5115 37.0723 16.9148 33.1419 9.41793L32.9909 9.11732C32.5775 8.33961 32.1747 7.55644 31.7824 6.76801C31.2781 5.86773 30.7748 4.91901 29.9685 4.01873C28.3564 2.01944 26.0386 0.919434 23.5703 0.919434C21.0507 0.919434 18.7838 2.01945 17.1218 3.91838C16.3658 4.81766 15.8112 5.76738 15.3078 6.66765C14.9146 7.45559 14.5118 8.23875 14.0994 9.01696L13.9479 9.31755C10.0683 16.8144 6.2899 24.4116 2.81348 31.9089L2.76266 32.0083C2.41033 32.8092 2.00667 33.6586 1.60351 34.5573C1.35185 35.1076 1.10019 35.7073 0.848533 36.3569C0.193214 38.2059 -0.00862661 39.9555 0.244039 41.7556C0.798192 45.5045 3.31679 48.6523 6.79371 50.0529C8.10385 50.6031 9.46432 50.8528 10.8746 50.8528C11.2778 50.8528 11.7811 50.8028 12.1848 50.7524C13.8477 50.5527 15.5605 50.0034 17.2235 49.0537C19.2891 47.9038 21.254 46.255 23.4706 43.8558C25.6873 46.255 27.7026 47.9038 29.7178 49.0537C31.3813 50.0034 33.0936 50.5527 34.756 50.7524C35.1592 50.8033 35.6635 50.8528 36.0667 50.8528C37.4775 50.8528 38.8878 50.6031 40.1471 50.0529C43.6743 48.6523 46.1426 45.4546 46.6973 41.7556C47.0974 40.0065 46.8961 38.2578 46.2412 36.4079ZM23.5195 39.0068C20.7985 35.6079 19.0349 32.4093 18.4309 29.7109C18.1793 28.561 18.1284 27.5613 18.2799 26.6616C18.3801 25.8616 18.6831 25.1616 19.0862 24.5619C20.0436 23.2132 21.6557 22.3629 23.52 22.3629C25.3848 22.3629 27.0472 23.1628 27.9542 24.5619C28.3574 25.1616 28.6594 25.8621 28.761 26.6616C28.9115 27.5618 28.8612 28.6109 28.6095 29.7109C28.003 32.3593 26.2394 35.5585 23.5195 39.0068ZM43.621 41.3561C43.2687 43.9551 41.505 46.2051 39.0368 47.2047C37.8278 47.704 36.5172 47.8543 35.208 47.704C33.9487 47.5537 32.6884 47.1538 31.3793 46.4048C29.5653 45.4041 27.7519 43.8557 25.6354 41.5559C28.9604 37.5078 30.9756 33.8084 31.7316 30.5103C32.0844 28.9604 32.1353 27.5613 31.9833 26.2611C31.7825 25.0118 31.3284 23.8618 30.6233 22.8622C29.0605 20.6122 26.4402 19.3135 23.519 19.3135C20.5977 19.3135 17.9774 20.6632 16.4156 22.8622C15.7105 23.8618 15.2565 25.0118 15.0552 26.2611C14.8538 27.5613 14.9037 29.0104 15.3068 30.5103C16.0623 33.8084 18.1279 37.5573 21.4025 41.6058C19.3369 43.9052 17.4726 45.4551 15.6587 46.4547C14.3485 47.2047 13.0897 47.6047 11.8304 47.754C10.4705 47.9043 9.15982 47.704 8.00118 47.2546C5.53291 46.255 3.76929 44.005 3.41696 41.4061C3.26597 40.1568 3.36613 38.9075 3.87045 37.5078C4.02094 37.0075 4.27361 36.5082 4.52527 35.9085C4.87809 35.1086 5.28024 34.2583 5.68391 33.4089L5.73475 33.3095C9.21066 25.8616 12.9387 18.2644 16.8183 10.8675L16.9693 10.5669C17.373 9.81788 17.7761 9.01796 18.1788 8.26798C18.5819 7.46806 19.0349 6.71808 19.5896 6.06796C20.6475 4.86958 22.0578 4.21896 23.6201 4.21896C25.1824 4.21896 26.5927 4.86958 27.6507 6.06796C28.2054 6.71957 28.6583 7.46956 29.0615 8.26798C29.4652 9.01796 29.8683 9.81788 30.2705 10.5669L30.422 10.8675C34.2424 18.2952 37.921 25.7938 41.4557 33.3595V33.4094C41.8594 34.2103 42.2117 35.1091 42.6148 35.91C42.8665 36.5087 43.1187 37.008 43.2697 37.5084C43.6718 38.8066 43.8228 40.0569 43.621 41.3561Z" fill="#CFCFDE"/>
  </g>
  <defs>
    <clipPath id="clip0_1_10886">
      <rect width="161.323" height="49.9333" fill="white" transform="translate(0.113281 0.919922)"/>
    </clipPath>
  </defs>
</svg>