<svg xmlns="http://www.w3.org/2000/svg" width="154" height="47" viewBox="0 0 154 47" fill="none">
  <g clip-path="url(#clip0_1_10890)">
    <path fill-rule="evenodd" clip-rule="evenodd" d="M95.482 36.4892C86.5873 43.0431 73.6497 46.5349 62.491 46.5349C46.858 46.5349 32.8422 40.7868 22.1687 31.2245C21.3601 30.4725 22.0609 29.4518 23.0851 30.0427C34.5673 36.7041 48.7448 40.6794 63.4074 40.6794C73.2724 40.6794 84.1615 38.638 94.1882 34.3941C95.6976 33.8031 96.9375 35.4148 95.482 36.4892Z" fill="#CFCFDE"/>
    <path fill-rule="evenodd" clip-rule="evenodd" d="M99.2011 32.2454C98.0691 30.795 91.6542 31.5471 88.7971 31.9231C87.9346 32.0306 87.7729 31.2785 88.5815 30.7413C93.7026 27.142 102.058 28.2164 103.028 29.3982C103.999 30.5801 102.759 38.9605 97.9612 42.9358C97.2066 43.5268 96.5058 43.2044 96.8292 42.3986C97.9073 39.7126 100.333 33.7496 99.2011 32.2454Z" fill="#CFCFDE"/>
    <path fill-rule="evenodd" clip-rule="evenodd" d="M88.9584 5.49261V2.00077C88.9584 1.46356 89.3357 1.14123 89.8209 1.14123H105.454C105.939 1.14123 106.37 1.51728 106.37 2.00077V4.9554C106.37 5.43889 105.939 6.08354 105.184 7.15795L97.0983 18.6542C100.117 18.6004 103.298 19.0302 105.993 20.5344C106.586 20.8567 106.748 21.3939 106.802 21.8774V25.5841C106.802 26.1213 106.262 26.7123 105.669 26.3899C100.872 23.8651 94.4569 23.5965 89.174 26.4437C88.6349 26.7123 88.042 26.1751 88.042 25.6378V22.0923C88.042 21.5551 88.042 20.5881 88.6349 19.7286L98.0147 6.35214H89.8748C89.3896 6.35214 88.9584 5.97609 88.9584 5.49261ZM31.9789 27.142H27.2351C26.8038 27.0883 26.4265 26.766 26.3725 26.3362V2.05449C26.3725 1.571 26.8038 1.19496 27.289 1.19496H31.7093C32.1945 1.19496 32.5179 1.571 32.5718 2.00077V5.17028H32.6796C33.8117 2.1082 36.0219 0.65775 38.9328 0.65775C41.8977 0.65775 43.7845 2.1082 45.0782 5.17028C46.2103 2.1082 48.8517 0.65775 51.6549 0.65775C53.6494 0.65775 55.8057 1.46356 57.1534 3.34378C58.6627 5.38517 58.3393 8.33981 58.3393 10.9721V26.3362C58.3393 26.8197 57.908 27.1957 57.4229 27.1957H52.733C52.2478 27.142 51.8705 26.766 51.8705 26.3362V13.4433C51.8705 12.4226 51.9783 9.84397 51.7627 8.877C51.3853 7.26538 50.3611 6.7819 48.9595 6.7819C47.8275 6.7819 46.5876 7.534 46.1024 8.76957C45.6173 10.0051 45.6712 12.0465 45.6712 13.4433V26.3362C45.6712 26.8197 45.2399 27.1957 44.7548 27.1957H40.011C39.5258 27.142 39.1485 26.766 39.1485 26.3362V13.4433C39.1485 10.7572 39.5797 6.72818 36.2375 6.72818C32.8414 6.72818 32.9492 10.5961 32.9492 13.4433V26.3362C32.8953 26.766 32.5179 27.142 31.9789 27.142ZM119.847 0.65775C126.909 0.65775 130.736 6.67446 130.736 14.3565C130.736 21.77 126.531 27.6792 119.847 27.6792C112.947 27.6792 109.173 21.6625 109.173 14.1416C109.12 6.56702 112.947 0.65775 119.847 0.65775ZM119.847 5.65376C116.343 5.65376 116.127 10.4349 116.127 13.3895C116.127 16.3442 116.074 22.6832 119.793 22.6832C123.459 22.6832 123.674 17.5798 123.674 14.464C123.674 12.4226 123.567 9.95143 122.974 8.01748C122.435 6.29842 121.356 5.65376 119.847 5.65376ZM139.846 27.142H135.103C134.617 27.0883 134.24 26.7123 134.24 26.2825V1.94704C134.294 1.51728 134.671 1.14123 135.157 1.14123H139.577C140.008 1.14123 140.332 1.46357 140.439 1.83961V5.54633H140.547C141.895 2.21565 143.728 0.65775 147.016 0.65775C149.118 0.65775 151.221 1.40983 152.568 3.50494C153.808 5.43888 153.808 8.71584 153.808 11.0796V26.3899C153.754 26.8197 153.377 27.142 152.892 27.142H148.148C147.717 27.0883 147.339 26.766 147.286 26.3899V13.1747C147.286 10.4886 147.609 6.62074 144.321 6.62074C143.189 6.62074 142.111 7.37284 141.571 8.55469C140.925 10.0589 140.817 11.5093 140.817 13.1747V26.2825C140.763 26.766 140.332 27.142 139.846 27.142ZM76.5059 15.5384C76.5059 17.3649 76.5598 18.9228 75.6434 20.5881C74.8887 21.9311 73.7027 22.7369 72.3551 22.7369C70.5222 22.7369 69.4441 21.3402 69.4441 19.2988C69.4441 15.2698 73.0559 14.5177 76.5059 14.5177V15.5384ZM81.3036 27.0883C80.9802 27.3569 80.5489 27.4106 80.1716 27.1957C78.6083 25.9064 78.2848 25.2618 77.4223 24.0262C74.8348 26.6585 72.948 27.4643 69.6058 27.4643C65.6167 27.4643 62.4901 24.9932 62.4901 20.1046C62.4901 16.2367 64.5925 13.6581 67.5574 12.3688C70.1449 11.2407 73.7567 11.0258 76.5059 10.7035V10.1126C76.5059 8.98445 76.6137 7.64144 75.9129 6.67447C75.3199 5.81494 74.2418 5.43888 73.2715 5.43888C71.4387 5.43888 69.8214 6.35214 69.4441 8.28609C69.3363 8.71585 69.0668 9.14561 68.6355 9.14561L64.0534 8.66212C63.6761 8.55468 63.2448 8.28608 63.3526 7.69516C64.4308 2.10821 69.4441 0.442871 73.9723 0.442871C76.2903 0.442871 79.3091 1.03379 81.1419 2.80658C83.4599 4.9554 83.2443 7.85632 83.2443 10.9721V18.3318C83.2443 20.5344 84.1607 21.5014 85.0232 22.7369C85.3466 23.1667 85.4005 23.7039 85.0232 23.9725C83.9989 24.7783 82.2739 26.2825 81.3036 27.0883ZM14.2435 15.5384C14.2435 17.3649 14.2974 18.9228 13.381 20.5881C12.6263 21.9311 11.4404 22.7369 10.0927 22.7369C8.25985 22.7369 7.18172 21.3402 7.18172 19.2988C7.18172 15.2698 10.7935 14.5177 14.2435 14.5177V15.5384ZM18.9873 27.0883C18.6639 27.3569 18.2326 27.4106 17.8553 27.1957C16.292 25.9064 15.9685 25.2618 15.106 24.0262C12.5185 26.6585 10.6318 27.4643 7.28953 27.4643C3.30042 27.4643 0.173828 24.9932 0.173828 20.1046C0.173828 16.2367 2.27619 13.6581 5.24107 12.3688C7.82859 11.2407 11.4404 11.0258 14.1896 10.7035V10.1126C14.1896 8.98445 14.2974 7.64144 13.5966 6.67447C13.0036 5.81494 11.9255 5.43888 10.9552 5.43888C9.12236 5.43888 7.50515 6.35214 7.12781 8.28609C7.01999 8.71585 6.75046 9.14561 6.3192 9.14561L1.73712 8.66212C1.35978 8.55468 0.928527 8.28608 1.03634 7.69516C2.11448 2.10821 7.12781 0.442871 11.656 0.442871C13.974 0.442871 16.9928 1.03379 18.8256 2.80658C21.1436 4.9554 20.928 7.85632 20.928 10.9721V18.3318C20.928 20.5344 21.8444 21.5014 22.7069 22.7369C23.0303 23.1667 23.0842 23.7039 22.7069 23.9725C21.6827 24.7783 19.9576 26.2825 18.9873 27.0883Z" fill="#CFCFDE"/>
  </g>
  <defs>
    <clipPath id="clip0_1_10890">
      <rect width="153.641" height="46.0923" fill="white" transform="matrix(-1 0 0 -1 153.812 46.5352)"/>
    </clipPath>
  </defs>
</svg>