<svg xmlns="http://www.w3.org/2000/svg" width="132" height="52" viewBox="0 0 132 52" fill="none">
  <path d="M104.46 16.833V0.931152H107.705V14.6007C106.806 15.0522 105.583 15.905 104.46 16.833ZM98.8194 21.6236C99.8178 20.4197 100.841 19.2158 102.064 18.1874V0.931152H98.8194V21.6236ZM61.2314 34.2648C61.2314 38.5036 62.9036 42.5418 65.9736 45.6268C69.0186 48.6868 73.0369 50.3924 77.2799 50.3924C79.077 50.3924 80.9239 50.0162 82.2218 49.364V46.1034C80.6993 46.7555 78.8523 47.1318 77.2799 47.1318C70.3414 47.1318 64.501 41.2626 64.501 34.2899V31.3553C64.501 24.3826 70.3663 18.5135 77.2799 18.5135C80.7243 18.5135 83.944 19.8428 86.34 22.2506C88.7361 24.6585 90.0589 27.894 90.0589 31.3553V50.4175H93.3035V30.7283C93.1039 26.5647 91.3318 22.677 88.3367 19.7676C85.3167 16.8581 81.3982 15.2528 77.2799 15.2528C73.0619 15.2528 69.0435 16.9333 65.9736 20.0184C62.9286 23.0783 61.2314 27.1165 61.2314 31.3804V34.2648ZM109.801 26.4393C111.274 24.9595 113.171 24.1318 115.043 24.1318C119.061 24.1318 122.181 27.2921 122.181 31.3052V34.2397C122.181 38.2779 119.036 41.4131 115.043 41.4131C113.096 41.4131 111.224 40.3346 109.751 38.4033C108.454 36.6977 107.605 34.3651 107.48 32.2834L104.859 35.544C105.384 38.002 106.657 40.3848 108.479 42.0402C110.35 43.7457 112.697 44.6988 115.043 44.6988C120.783 44.6988 125.451 40.0085 125.451 34.2648V31.3302C125.451 28.5963 124.352 25.9878 122.356 24.0064C120.359 21.9998 117.763 20.8962 115.043 20.8962C113.321 20.8962 110.6 21.5233 107.355 24.4578C106.482 25.3357 104.435 27.3924 103.187 28.8472C101.091 31.1547 98.0707 34.5909 95.475 38.0772V43.1688C98.3452 39.4567 99.9925 37.375 102.713 34.2397C105.109 31.3804 108.104 27.9442 109.801 26.4393ZM33.1277 20.2943V16.4317C30.1826 14.8515 26.9878 14.1492 22.7448 14.1492C18.402 14.1492 14.2838 15.7545 11.1639 18.6389C8.01911 21.5484 6.29695 25.3608 6.29695 29.424V30.4775C6.29695 38.9049 13.0109 45.7523 21.2972 45.7523C28.0112 45.7523 30.7816 43.5451 31.4804 42.8428V33.0358H20.4985V36.2964H28.4355V41.2125H28.4105C27.3872 41.6138 25.2657 42.4665 21.2972 42.4665C18.1524 42.4665 15.1823 41.2375 12.9859 38.9802C10.7646 36.7228 9.56656 33.713 9.56656 30.4524V29.3989C9.56656 22.9028 15.6066 17.3848 22.7698 17.3848C27.6867 17.4099 30.6318 18.2376 33.1277 20.2943ZM56.7887 24.1318C58.0117 24.1318 59.06 24.3324 59.9086 24.7337C60.3079 23.7305 60.7322 22.8777 61.3312 21.8744C60.4577 21.2474 58.3362 20.8461 56.7887 20.8461C50.8735 20.8461 46.4058 25.3357 46.4058 31.3052V50.3673H49.6505V31.3052C49.6505 27.0914 52.5707 24.1318 56.7887 24.1318ZM0.65625 29.424V30.4775C0.65625 36.1459 2.80271 41.4131 6.67133 45.351C10.54 49.2637 15.7314 51.4207 21.2723 51.4207C25.7399 51.4207 29.6834 50.4175 33.0279 48.4109C35.7734 46.7555 36.9963 45.1001 37.0962 44.9496V27.3924H20.4985V30.653H33.8515V43.9715C32.2791 45.5516 28.5603 48.1852 21.2972 48.1852C16.555 48.1852 12.1623 46.3542 8.91763 43.0434C5.69794 39.7577 3.92586 35.2932 3.92586 30.5025V29.4491C3.92586 24.9093 5.94753 20.3946 9.49169 17.0587C13.1107 13.6476 17.8279 11.7665 22.7698 11.7665C27.3872 11.7665 30.5819 12.4688 33.1527 14.0489V10.3619C30.4571 9.20813 27.2374 8.7065 22.7448 8.7065C10.7646 8.7065 0.65625 18.1874 0.65625 29.424ZM87.6379 50.3673V31.3052C87.6379 25.436 83.0704 20.8461 77.23 20.8461C74.5095 20.8461 71.9138 21.9497 69.9171 23.9562C67.9204 25.9627 66.8222 28.5713 66.8222 31.2801V34.2146C66.8222 39.8831 71.5893 44.6487 77.2051 44.6487C78.7525 44.6487 80.8491 44.2724 82.1469 43.1939V39.8079C80.874 40.8362 79.052 41.4382 77.2051 41.4382C73.2117 41.4382 70.0668 38.2779 70.0668 34.2648V31.3302C70.0668 27.2921 73.2117 24.1569 77.2051 24.1569C81.2234 24.1569 84.3433 27.3172 84.3433 31.3302V50.3924H87.6379V50.3673ZM56.7887 18.4633C58.9851 18.4633 60.9069 18.9399 62.6291 19.918C63.4278 18.8897 64.2514 18.0871 64.8754 17.46C63.0534 16.0555 59.9585 15.2027 56.8137 15.2027C52.2961 15.2027 48.2029 16.833 45.2827 19.8177C42.3875 22.7523 40.7901 26.8406 40.7901 31.3302V50.3924H44.0347V31.3302C44.0098 23.7556 49.2511 18.4633 56.7887 18.4633ZM126.349 19.9682C123.304 16.9082 119.286 15.2027 115.043 15.2027C111.948 15.2027 108.853 16.3564 107.131 17.5102C103.587 19.8679 100.691 22.4513 95.45 29.2485V34.1394C99.8927 28.3204 104.086 23.7556 107.28 21.2223C109.377 19.5418 112.347 18.4884 115.043 18.4884C121.981 18.4884 127.822 24.3826 127.822 31.3302V34.2648C127.822 37.701 126.474 40.9366 124.028 43.3695C121.607 45.7773 118.412 47.1067 115.043 47.1067C109.352 47.1067 104.335 43.1688 102.988 37.8264L100.691 40.6105C102.364 46.2288 108.404 50.3673 115.043 50.3673C119.286 50.3673 123.279 48.6617 126.349 45.6018C129.394 42.5167 131.091 38.5036 131.091 34.2397V31.3052C131.091 27.0663 129.394 23.0282 126.349 19.9682Z" fill="#CFCFDE"/>
</svg>