<svg xmlns="http://www.w3.org/2000/svg" width="152" height="41" viewBox="0 0 152 41" fill="none">
  <g clip-path="url(#clip0_1_10888)">
    <path d="M143.28 19.521L151.375 40.8139C148.99 40.4754 146.605 40.0514 144.177 39.6694L139.616 27.9042L134.93 38.6982C132.63 38.3162 130.371 38.1889 128.071 37.8923L136.294 19.2679L128.836 0.178711H135.739L139.913 10.8441L144.388 0.178711H151.374L143.28 19.521ZM123.385 0.178711H117.122V37.089C119.167 37.2164 121.296 37.3003 123.385 37.5536V0.178711ZM111.71 36.6652C106.002 36.2845 100.292 35.9473 94.4553 35.8186V0.178874H100.846V29.8085C104.51 29.8926 108.174 30.1879 111.71 30.3572V36.6652ZM87.637 14.6137V20.9622H78.9032V35.3959H72.5989V0.178711H90.4933V6.52727H78.9045V14.6138H87.6383L87.637 14.6137ZM61.8607 6.52727V35.7345C59.7298 35.7345 57.558 35.7345 55.4692 35.8186V6.52727H48.8651V0.178711H68.5057V6.52727H61.8607ZM41.9636 21.2996C39.1522 21.2996 35.8282 21.2996 33.4423 21.4283V30.8664C37.1916 30.6118 40.9409 30.3165 44.7324 30.1892V36.2845L27.0521 37.6823V0.178711H44.7312V6.52727H33.4422V15.0782C35.914 15.0782 39.7056 14.951 41.9633 14.951V21.3009L41.9636 21.2996ZM6.55616 17.7439V39.924C4.25749 40.1786 2.21099 40.4753 0.0390625 40.8139V0.178711H6.13215L14.4395 23.2489V0.178711H20.831V38.1889C18.5731 38.5709 16.2718 38.6982 13.8436 39.0355L6.55616 17.7439Z" fill="#CFCFDE"/>
  </g>
  <defs>
    <clipPath id="clip0_1_10888">
      <rect width="151.336" height="40.7149" fill="white" transform="translate(0.0390625 0.138184)"/>
    </clipPath>
  </defs>
</svg>